<svg width="320" height="32" viewBox="0 0 320 32" fill="none" xmlns="http://www.w3.org/2000/svg">
<path d="M16 0L19.5922 11.0557H31.2169L21.8123 17.8885L25.4046 28.9443L16 22.1115L6.59544 28.9443L10.1877 17.8885L0.783095 11.0557H12.4078L16 0Z" fill="#F50101"/>
<path d="M272 0L275.592 11.0557H287.217L277.812 17.8885L281.405 28.9443L272 22.1115L262.595 28.9443L266.188 17.8885L256.783 11.0557H268.408L272 0Z" fill="#D9D9D9"/>
<path d="M240 0L243.592 11.0557H255.217L245.812 17.8885L249.405 28.9443L240 22.1115L230.595 28.9443L234.188 17.8885L224.783 11.0557H236.408L240 0Z" fill="#F50101"/>
<path d="M176 0L179.592 11.0557H191.217L181.812 17.8885L185.405 28.9443L176 22.1115L166.595 28.9443L170.188 17.8885L160.783 11.0557H172.408L176 0Z" fill="#F50101"/>
<path d="M208 0L211.592 11.0557H223.217L213.812 17.8885L217.405 28.9443L208 22.1115L198.595 28.9443L202.188 17.8885L192.783 11.0557H204.408L208 0Z" fill="#F50101"/>
<path d="M112 0L115.592 11.0557H127.217L117.812 17.8885L121.405 28.9443L112 22.1115L102.595 28.9443L106.188 17.8885L96.7831 11.0557H108.408L112 0Z" fill="#F50101"/>
<path d="M144 0L147.592 11.0557H159.217L149.812 17.8885L153.405 28.9443L144 22.1115L134.595 28.9443L138.188 17.8885L128.783 11.0557H140.408L144 0Z" fill="#F50101"/>
<path d="M80 0L83.5922 11.0557H95.2169L85.8123 17.8885L89.4046 28.9443L80 22.1115L70.5954 28.9443L74.1877 17.8885L64.7831 11.0557H76.4078L80 0Z" fill="#F50101"/>
<path d="M48 0L51.5922 11.0557H63.2169L53.8123 17.8885L57.4046 28.9443L48 22.1115L38.5954 28.9443L42.1877 17.8885L32.7831 11.0557H44.4078L48 0Z" fill="#F50101"/>
<path d="M304 0L307.592 11.0557H319.217L309.812 17.8885L313.405 28.9443L304 22.1115L294.595 28.9443L298.188 17.8885L288.783 11.0557H300.408L304 0Z" fill="#D9D9D9"/>
</svg>
