<svg width="32" height="32" viewBox="0 0 32 32" fill="none" xmlns="http://www.w3.org/2000/svg">
<path d="M22.6667 2.66663H9.33341C5.65152 2.66663 2.66675 5.65139 2.66675 9.33329V22.6666C2.66675 26.3485 5.65152 29.3333 9.33341 29.3333H22.6667C26.3486 29.3333 29.3334 26.3485 29.3334 22.6666V9.33329C29.3334 5.65139 26.3486 2.66663 22.6667 2.66663Z" stroke="white" stroke-width="2" stroke-linecap="round" stroke-linejoin="round"/>
<path d="M21.2757 15.551C21.4403 16.6607 21.2507 17.794 20.7341 18.7897C20.2174 19.7854 19.3999 20.5929 18.3979 21.0973C17.3959 21.6016 16.2603 21.7772 15.1528 21.5989C14.0452 21.4207 13.0221 20.8978 12.2289 20.1046C11.4356 19.3113 10.9127 18.2882 10.7345 17.1806C10.5563 16.0731 10.7318 14.9376 11.2362 13.9355C11.7405 12.9335 12.548 12.116 13.5437 11.5993C14.5394 11.0827 15.6727 10.8931 16.7824 11.0577C17.9143 11.2255 18.9622 11.753 19.7713 12.5621C20.5804 13.3712 21.1079 14.4191 21.2757 15.551Z" stroke="white" stroke-width="2" stroke-linecap="round" stroke-linejoin="round"/>
<path d="M23.3333 8.66663H23.3458" stroke="white" stroke-width="2" stroke-linecap="round" stroke-linejoin="round"/>
</svg>
