<svg width="32" height="32" viewBox="0 0 32 32" fill="none" xmlns="http://www.w3.org/2000/svg">
<path d="M31 3.01401C29.6942 3.95512 28.2483 4.67491 26.7182 5.14568C25.8969 4.18087 24.8055 3.49704 23.5914 3.18667C22.3774 2.8763 21.0993 2.95437 19.9301 3.41032C18.7609 3.86628 17.757 4.67811 17.0541 5.73602C16.3512 6.79394 15.9832 8.04689 16 9.32542V10.7187C13.6036 10.7822 11.229 10.2391 9.08774 9.13796C6.94647 8.03678 5.10498 6.41163 3.72727 4.40726C3.72727 4.40726 -1.72727 16.9465 10.5455 22.5195C7.73708 24.4672 4.39158 25.4438 1 25.306C13.2727 32.2722 28.2727 25.306 28.2727 9.28363C28.2715 8.89554 28.235 8.50842 28.1636 8.12723C29.5554 6.72492 30.5375 4.9544 31 3.01401Z" stroke="white" stroke-width="2" stroke-linecap="round" stroke-linejoin="round"/>
</svg>
